nColumns=19
nRows=68
DataType=double
version=3
OpenSimVersion=4.1
endheader
time	ground_force_1_vx	ground_force_1_vy	ground_force_1_vz	ground_force_1_px	ground_force_1_py	ground_force_1_pz	ground_force_1_mx	ground_force_1_my	ground_force_1_mz	ground_force_2_vx	ground_force_2_vy	ground_force_2_vz	ground_force_2_px	ground_force_2_py	ground_force_2_pz	ground_force_2_mx	ground_force_2_my	ground_force_2_mz
0	-10.67	60.5028	1.39046	0.091344	0.006	-0.149066	0	0.495173	0	0	0	0	0.71542	0	-0.324923	0	0	0
0.01	-16.4824	89.1441	0.741107	0.098846	0.006	-0.148909	0	0.488282	0	0	0	0	0.71542	0	-0.324923	0	0	0
0.02	-23.5319	123.148	-0.184393	0.105255	0.006	-0.148685	0	0.486875	0	0	0	0	0.71542	0	-0.324923	0	0	0
0.03	-31.8157	162.245	-1.43544	0.110287	0.006	-0.148434	0	0.486736	0	0	0	0	0.71542	0	-0.324923	0	0	0
0.04	-41.2452	205.73	-3.05872	0.114585	0.006	-0.148161	0	0.484796	0	0	0	0	0.71542	0	-0.324923	0	0	0
0.05	-51.6069	252.543	-5.09219	0.118485	0.006	-0.147864	0	0.478423	0	0	0	0	0.71542	0	-0.324923	0	0	0
0.06	-62.5417	301.385	-7.56261	0.122155	0.006	-0.14754	0	0.465055	0	0	0	0	0.71542	0	-0.324923	0	0	0
0.07	-73.5808	350.759	-10.4843	0.125675	0.006	-0.147181	0	0.441718	0	0	0	0	0.71542	0	-0.324923	0	0	0
0.08	-84.2025	398.994	-13.8476	0.129074	0.006	-0.14678	0	0.405293	0	0	0	0	0.71542	0	-0.324923	0	0	0
0.09	-93.8645	444.374	-17.6038	0.132357	0.006	-0.146329	0	0.354217	0	0	0	0	0.71542	0	-0.324923	0	0	0
0.1	-102.054	485.311	-21.6556	0.135516	0.006	-0.145826	0	0.289396	0	0	0	0	0.71542	0	-0.324923	0	0	0
0.11	-108.375	520.544	-25.8647	0.138554	0.006	-0.145267	0	0.213521	0	0	0	0	0.71542	0	-0.324923	0	0	0
0.12	-112.607	549.303	-30.0735	0.141487	0.006	-0.144652	0	0.129793	0	0	0	0	0.71542	0	-0.324923	0	0	0
0.13	-114.709	571.337	-34.1166	0.144343	0.006	-0.143985	0	0.041453	0	0	0	0	0.71542	0	-0.324923	0	0	0
0.14	-114.781	586.803	-37.8208	0.147155	0.006	-0.14327	0	-0.047858	0	0	0	0	0.71542	0	-0.324923	0	0	0
0.15	-113.02	596.125	-41.0238	0.14996	0.006	-0.142514	0	-0.134944	0	0	0	0	0.71542	0	-0.324923	0	0	0
0.16	-109.682	599.88	-43.6043	0.15279	0.006	-0.141723	0	-0.218507	0	0	0	0	0.71542	0	-0.324923	0	0	0
0.17	-105.055	598.734	-45.5006	0.155681	0.006	-0.140897	0	-0.299298	0	0	0	0	0.71542	0	-0.324923	0	0	0
0.18	-99.4414	593.407	-46.7099	0.158669	0.006	-0.140033	0	-0.379174	0	0	0	0	0.71542	0	-0.324923	0	0	0
0.19	-93.1419	584.648	-47.2824	0.161786	0.006	-0.139127	0	-0.46054	0	0	0	0	0.71542	0	-0.324923	0	0	0
0.2	-86.4406	573.227	-47.3109	0.165066	0.006	-0.138172	0	-0.545819	0	0	0	0	0.71542	0	-0.324923	0	0	0
0.21	-79.596	559.922	-46.9132	0.168536	0.006	-0.137161	0	-0.636629	0	0	0	0	0.71542	0	-0.324923	0	0	0
0.22	-72.8285	545.507	-46.2144	0.172217	0.006	-0.13609	0	-0.733211	0	0	0	0	0.71542	0	-0.324923	0	0	0
0.23	-66.313	530.736	-45.3324	0.176122	0.006	-0.13496	0	-0.83463	0	0	0	0	0.71542	0	-0.324923	0	0	0
0.24	-60.1769	516.308	-44.3652	0.180245	0.006	-0.133778	0	-0.939389	0	0	0	0	0.71542	0	-0.324923	0	0	0
0.25	-54.5013	502.839	-43.3864	0.184565	0.006	-0.132561	0	-1.04623	0	0	0	0	0.71542	0	-0.324923	0	0	0
0.26	-49.3245	490.836	-42.4482	0.189038	0.006	-0.13133	0	-1.15466	0	0	0	0	0.71542	0	-0.324923	0	0	0
0.27	-44.646	480.679	-41.5903	0.193602	0.006	-0.130111	0	-1.26491	0	0	0	0	0.71542	0	-0.324923	0	0	0
0.28	-40.4349	472.607	-40.847	0.198182	0.006	-0.128931	0	-1.37718	0	0	0	0	0.71542	0	-0.324923	0	0	0
0.29	-36.6415	466.717	-40.251	0.202702	0.006	-0.127812	0	-1.491	0	0	0	0	0.71542	0	-0.324923	0	0	0
0.3	-33.2076	462.977	-39.8313	0.207092	0.006	-0.12677	0	-1.60479	0	0	0	0	0.71542	0	-0.324923	0	0	0
0.31	-30.0747	461.254	-39.6073	0.211298	0.006	-0.125817	0	-1.71606	0	0	0	0	0.71542	0	-0.324923	0	0	0
0.32	-27.1876	461.347	-39.5857	0.215282	0.006	-0.124961	0	-1.82183	0	0	0	0	0.71542	0	-0.324923	0	0	0
0.33	-24.4948	463.024	-39.7612	0.219025	0.006	-0.124204	0	-1.91926	0	0	0	0	0.71542	0	-0.324923	0	0	0
0.34	-21.9479	466.04	-40.1194	0.222522	0.006	-0.123547	0	-2.00588	0	0	0	0	0.71542	0	-0.324923	0	0	0
0.35	-19.5011	470.155	-40.6409	0.22578	0.006	-0.122988	0	-2.07966	0	0	0	0	0.71542	0	-0.324923	0	0	0
0.36	-17.111	475.133	-41.3029	0.228817	0.006	-0.122521	0	-2.13904	0	0	0	0	0.71542	0	-0.324923	0	0	0
0.37	-14.7375	480.749	-42.0806	0.231656	0.006	-0.12214	0	-2.18297	0	0	0	0	0.71542	0	-0.324923	0	0	0
0.38	-12.3445	486.787	-42.9478	0.234322	0.006	-0.121838	0	-2.21103	0	0	0	0	0.71542	0	-0.324923	0	0	0
0.39	-9.90068	493.056	-43.8783	0.236843	0.006	-0.121606	0	-2.22322	0	0	0	0	0.71542	0	-0.324923	0	0	0
0.4	-7.38003	499.386	-44.8463	0.239245	0.006	-0.121437	0	-2.21992	0	0	0	0	0.71542	0	-0.324923	0	0	0
0.41	-4.76234	505.639	-45.827	0.241555	0.006	-0.121323	0	-2.20192	0	0	0	0	0.71542	0	-0.324923	0	0	0
0.42	-2.0326	511.702	-46.7959	0.243798	0.006	-0.121259	0	-2.17035	0	0	0	0	0.71542	0	-0.324923	0	0	0
0.43	0.821568	517.488	-47.7294	0.245993	0.006	-0.12124	0	-2.12672	0	0	0	0	0.71542	0	-0.324923	0	0	0
0.44	3.8131	522.921	-48.6066	0.248156	0.006	-0.121261	0	-2.07291	0	0	0	0	0.71542	0	-0.324923	0	0	0
0.45	6.95711	527.938	-49.4106	0.250298	0.006	-0.12132	0	-2.01102	0	0	0	0	0.71542	0	-0.324923	0	0	0
0.46	10.2694	532.489	-50.1297	0.252424	0.006	-0.121413	0	-1.94321	0	0	0	0	0.71542	0	-0.324923	0	0	0
0.47	13.765	536.535	-50.7573	0.254538	0.006	-0.121539	0	-1.87149	0	0	0	0	0.71542	0	-0.324923	0	0	0
0.48	17.4564	540.045	-51.2906	0.256641	0.006	-0.121697	0	-1.79754	0	0	0	0	0.71542	0	-0.324923	0	0	0
0.49	21.3538	542.998	-51.7293	0.258733	0.006	-0.121889	0	-1.72265	0	0	0	0	0.71542	0	-0.324923	0	0	0
0.5	25.4625	545.373	-52.0732	0.260813	0.006	-0.122116	0	-1.64771	0	0	0	0	0.71542	0	-0.324923	0	0	0
0.51	29.7821	547.144	-52.3209	0.262877	0.006	-0.122378	0	-1.57331	0	0	0	0	0.71542	0	-0.324923	0	0	0
0.52	34.3055	548.269	-52.4703	0.264922	0.006	-0.122675	0	-1.49959	0	0	0	0	0.71542	0	-0.324923	0	0	0
0.53	39.0185	548.685	-52.5185	0.266943	0.006	-0.123006	0	-1.42624	0	0	0	0	0.71542	0	-0.324923	0	0	0
0.54	43.8997	548.3	-52.4594	0.268933	0.006	-0.123367	0	-1.35252	0	0	0	0	0.71542	0	-0.324923	0	0	0
0.55	48.9187	546.994	-52.2836	0.270888	0.006	-0.123752	0	-1.27755	0	0	0	0	0.71542	0	-0.324923	0	0	0
0.56	54.0343	544.625	-51.9766	0.272799	0.006	-0.124156	0	-1.20055	0	0	0	0	0.71542	0	-0.324923	0	0	0
0.57	59.1907	541.022	-51.5183	0.274664	0.006	-0.124569	0	-1.1213	0	0	0	0	0.71542	0	-0.324923	0	0	0
0.58	64.3132	535.991	-50.8829	0.27648	0.006	-0.124987	0	-1.04025	0	0	0	0	0.71542	0	-0.324923	0	0	0
0.59	69.3069	529.317	-50.041	0.278247	0.006	-0.125404	0	-0.958474	0	0	0	0	0.71542	0	-0.324923	0	0	0
0.6	74.056	520.766	-48.9644	0.27997	0.006	-0.125814	0	-0.87732	0	0	0	0	0.71542	0	-0.324923	0	0	0
0.61	78.4285	510.094	-47.6288	0.281655	0.006	-0.126216	0	-0.798245	0	0	0	0	0.71542	0	-0.324923	0	0	0
0.62	82.2799	497.064	-46.0147	0.283311	0.006	-0.126606	0	-0.722696	0	-4.51438	40.1579	-3.82588	0.751263	0.006	-0.339888	0	0.220157	0
0.63	85.4574	481.455	-44.1098	0.284947	0.006	-0.12698	0	-0.652002	0	-8.33037	65.9152	-3.30745	0.772404	0.006	-0.34845	0	0.241101	0
0.64	87.8042	463.089	-41.9098	0.286575	0.006	-0.127337	0	-0.587317	0	-13.2388	97.4884	-2.43535	0.784267	0.006	-0.353042	0	0.22426	0
0.65	89.1662	441.848	-39.4191	0.288207	0.006	-0.127675	0	-0.529642	0	-19.3346	134.981	-1.12394	0.792151	0.006	-0.355929	0	0.191207	0
0.66	89.401	417.7	-36.6535	0.289858	0.006	-0.127993	0	-0.479652	0	-26.6641	178.098	0.715303	0.798032	0.006	-0.357946	0	0.151922	0
0.67	88.3905	390.723	-33.6422	0.291545	0.006	-0.12829	0	-0.437327	0	-35.193	226.073	3.16323	0.802823	0.006	-0.359476	0	0.113564	0
